<?xml version="1.0" encoding="UTF-8"?>
<svg xmlns="http://www.w3.org/2000/svg" version="1.1" width="280mm" height="336mm" viewBox="0 0 280 336">
  <rect width="100%" height="100%" fill="#f3f0e8"/>
  <rect x="40" y="40" width="150" height="220" fill="#f7f4ec" stroke="#1c2218" stroke-width="0.6"/>
  <rect x="40" y="40" width="8" height="220" fill="#c8d9b8" fill-opacity="0.55" stroke="#1c2218" stroke-width="0.35"/>
  <rect x="182" y="40" width="8" height="220" fill="#c8d9b8" fill-opacity="0.55" stroke="#1c2218" stroke-width="0.35"/>
  <path d="M40,260 L190,260 L190,246 L182,246 L182,250 L48,250 L48,246 L40,246 Z" fill="#a8c49a" fill-opacity="0.55" stroke="#1c2218" stroke-width="0.45"/>
  <text x="115" y="255" text-anchor="middle" font-size="3.4" font-family="IBM Plex Mono, monospace" fill="#2a3828">SOLDA U 10mm</text>
  <path d="M105,61 L125,61 C126.3807,61 127.5,59.8807 127.5,58.5 C127.5,57.1193 126.3807,56 125,56 L119,56 C119,53.7909 117.2091,52 115,52 C112.7909,52 111,53.7909 111,56 L105,56 C103.6193,56 102.5,57.1193 102.5,58.5 C102.5,59.8807 103.6193,61 105,61 Z" fill="#f7f4ec" stroke="#1c2218" stroke-width="0.45"/>
  <text x="115" y="66" text-anchor="middle" font-size="2.8" font-family="IBM Plex Mono, monospace" fill="#5c6b60">CHAPEU MX 25x9mm</text>
  <text x="40" y="282" font-size="3.6" font-family="IBM Plex Mono, monospace" fill="#1c2218">PLANTA TECNICA - amostra export</text>
  <text x="40" y="288" font-size="3" font-family="IBM Plex Mono, monospace" fill="#5c6b60">Stand-up pouch - Solda U - 150x220mm</text>
</svg>
